<?xml version="1.0" encoding="utf-8"?>
<!-- Generator: Adobe Illustrator 16.0.0, SVG Export Plug-In . SVG Version: 6.00 Build 0)  -->
<!DOCTYPE svg PUBLIC "-//W3C//DTD SVG 1.1//EN" "http://www.w3.org/Graphics/SVG/1.1/DTD/svg11.dtd">
<svg version="1.1" id="图层_1" xmlns="http://www.w3.org/2000/svg" xmlns:xlink="http://www.w3.org/1999/xlink" x="0px" y="0px"
	 width="640px" height="480px" viewBox="0 0 640 480" enable-background="new 0 0 640 480" xml:space="preserve">
<g id="图层_2">
	<polygon fill="#FAF8F3" points="23.5,11 0,237.5 0,470.5 642,470.5 640,11 	"/>
	<polygon fill="#A9DFEC" points="230,84 330,84 330,139.5 239,139.5 230,132.5 	"/>
	<rect x="504" y="315.5" fill="#A9DFEC" width="36.5" height="31"/>
	<rect x="339" y="315.5" fill="#A9DFEC" width="41.5" height="31"/>
	<polygon fill="#A9DFEC" points="395,315.5 395,346.5 433.5,346.5 433.5,320.5 429.5,315.5 	"/>
	<rect x="395" y="357.5" fill="#A9DFEC" width="38.5" height="32"/>
	<rect x="420.5" y="401.5" fill="#A9DFEC" width="63" height="19"/>
	<rect x="363.5" y="401.5" fill="#A9DFEC" width="57" height="66.5"/>
	<rect x="339" y="357.5" fill="#A9DFEC" width="41.5" height="32"/>
	<polygon fill="#A9DFEC" points="191,401.5 191,427 257.5,427 257.5,468 313,468 313,401.5 	"/>
	<rect x="288" y="357.5" fill="#A9DFEC" width="42" height="32"/>
	<rect x="288" y="315.5" fill="#A9DFEC" width="42" height="31"/>
	<rect x="234.5" y="359.5" fill="#A9DFEC" width="41" height="30"/>
	<polygon fill="#A9DFEC" points="241.5,315.5 275.5,315.5 275.5,346.5 234.5,347 234.5,324 	"/>
	<rect x="163" y="359.5" fill="#A9DFEC" width="56" height="30"/>
	<polygon fill="#A9DFEC" points="163,315.5 163,346.5 219,346.5 219,324 210,315.5 	"/>
	<path fill="#A9DFEC" d="M339,278.5V308h41.5v-47.5h-26C354.5,260.5,354.5,277.5,339,278.5z"/>
	<path fill="#A9DFEC" d="M288,260.5V308h42v-29.5c0,0-15-6-16.5-18H288z"/>
	<polygon fill="#A9DFEC" points="245,149.5 245,228.75 234.5,231 234.5,308 275.5,308 275.5,149.5 	"/>
	<path fill="#A9DFEC" d="M288,200.5v48h26.5c0,0,6-13,15.5-13.5v-34.5H288z"/>
	<rect x="288" y="149.5" fill="#A9DFEC" width="42" height="41"/>
	<rect x="339" y="149.5" fill="#A9DFEC" width="41.5" height="41"/>
	<path fill="#A9DFEC" d="M339,200.5V235c0,0,15.5,4.5,15.5,13.5h26v-48H339z"/>
	<polygon fill="#A9DFEC" points="392.5,149.5 392.5,308 433.5,308 433.5,228.75 425.5,228.75 425.5,149.5 	"/>
	<polygon fill="#A9DFEC" points="454,315.5 490,315.5 490,346.5 450,346.5 450,320.5 	"/>
	<rect x="504" y="357.5" fill="#A9DFEC" width="36.5" height="32"/>
	<polygon fill="#A9DFEC" points="551,342.5 551,383 537.5,398.5 522.25,398.5 522.25,418 536.625,418 536.625,405 551,405 565,383 
		565,342.5 	"/>
	<polygon fill="#A9DFEC" points="536.625,405 551,405 565,383 565,342.5 640,342.5 638,468 536.625,468 	"/>
	<rect x="560" y="256.5" fill="#A9DFEC" width="26.5" height="74.5"/>
	<rect x="504" y="256.5" fill="#FF0000" width="36.5" height="44.5"/>
	<rect x="504" y="205.5" fill="#A9DFEC" width="36.5" height="39.5"/>
	<polygon fill="#A9DFEC" points="461.5,149.5 461.5,230.5 454,230.5 454,308 490,308 490,149.5 	"/>
	<rect x="504" y="149.5" fill="#A9DFEC" width="36.5" height="44"/>
	<polygon fill="#A9DFEC" points="450,84 450,132.5 457,139.5 540.5,139.5 540.5,84 	"/>
	<polygon fill="#A9DFEC" points="341,84 341,139.5 428,139.5 433.5,132.5 433.5,84 	"/>
	<polygon fill="#A9DFEC" points="72.5,50.5 72.5,90 83,90 83,118.5 72.5,118.5 72.5,162 102,162 102,260.5 145.5,260.5 145.5,73 
		196.5,72 196.5,11 134.5,11 134.5,51.5 	"/>
	<polygon fill="#A9DFEC" points="62,346.5 83,346.5 83,379.5 92,379.5 92,433 145,433 145,468 44.5,468 44.5,380 61,379 	"/>
	<polygon fill="#A9DFEC" points="83,275.5 83,379.5 92,379.5 92,433 145,433 145,275.5 	"/>
	<polygon fill="#A9DFEC" points="163,84 163,142.5 206,142.5 213.5,132.5 213.5,84 	"/>
	<polygon fill="#A9DFEC" points="163,149.5 163,308 210,308 210,228.75 202.5,228.75 202,149.5 	"/>
	<path fill="#A9DFEC" d="M196.5,11c0,0,12.5,28.5,37,34H298v27H196.5V11z"/>
	<polygon fill="#A9DFEC" points="308.5,46.5 308.5,72 558.5,72 558.5,240 586.5,240 586.5,46.5 	"/>
	<text transform="matrix(1 0 0 1 264.5002 112.0002)" font-family="'AdobeSongStd-Light-GBpc-EUC-H'" font-size="12">珠宝区</text>
	<text transform="matrix(1 0 0 1 370.9998 114.0002)" font-family="'AdobeSongStd-Light-GBpc-EUC-H'" font-size="12">鞋区</text>
	<text transform="matrix(1 0 0 1 485.4998 117.5002)" font-family="'AdobeSongStd-Light-GBpc-EUC-H'" font-size="12">鞋区</text>
	
		<text transform="matrix(1 0 0 1 122.5002 132.5002)" font-family="'AdobeSongStd-Light-GBpc-EUC-H'" font-size="12" glyph-orientation-vertical="0" writing-mode="tb">名品区</text>
	
		<text transform="matrix(1 0 0 1 116.0002 328.5002)" font-family="'AdobeSongStd-Light-GBpc-EUC-H'" font-size="12" glyph-orientation-vertical="0" writing-mode="tb">名品区</text>
	
		<text transform="matrix(1 0 0 1 65.5002 401.5002)" font-family="'AdobeSongStd-Light-GBpc-EUC-H'" font-size="12" glyph-orientation-vertical="0" writing-mode="tb">餐厅区</text>
	
		<text transform="matrix(1 0 0 1 183.5002 91.0002)" font-family="'AdobeSongStd-Light-GBpc-EUC-H'" font-size="12" glyph-orientation-vertical="0" writing-mode="tb">珠宝区</text>
	
		<text transform="matrix(1 0 0 1 182.0002 206.5002)" font-family="'AdobeSongStd-Light-GBpc-EUC-H'" font-size="12" glyph-orientation-vertical="0" writing-mode="tb">名品区</text>
	
		<text transform="matrix(1 0 0 1 260.0002 205.5002)" font-family="'AdobeSongStd-Light-GBpc-EUC-H'" font-size="12" glyph-orientation-vertical="0" writing-mode="tb">珠宝区</text>
	
		<text transform="matrix(1 0 0 1 405.9998 200.5002)" font-family="'AdobeSongStd-Light-GBpc-EUC-H'" font-size="12" glyph-orientation-vertical="0" writing-mode="tb">化妆品区</text>
	
		<text transform="matrix(1 0 0 1 473.4998 212.0002)" font-family="'AdobeSongStd-Light-GBpc-EUC-H'" font-size="12" glyph-orientation-vertical="0" writing-mode="tb">鞋区</text>
	
		<text transform="matrix(1 0 0 1 519.9998 157.5002)" font-family="'AdobeSongStd-Light-GBpc-EUC-H'" font-size="12" glyph-orientation-vertical="0" writing-mode="tb">鞋区</text>
	
		<text transform="matrix(1 0 0 1 520.9998 212.0002)" font-family="'AdobeSongStd-Light-GBpc-EUC-H'" font-size="12" glyph-orientation-vertical="0" writing-mode="tb">鞋区</text>
	
		<text transform="matrix(1 0 0 1 520.4998 265.0002)" font-family="'AdobeSongStd-Light-GBpc-EUC-H'" font-size="12" glyph-orientation-vertical="0" writing-mode="tb">鞋区</text>
	
		<text transform="matrix(1 0 0 1 572.9998 278.5002)" font-family="'AdobeSongStd-Light-GBpc-EUC-H'" font-size="12" glyph-orientation-vertical="0" writing-mode="tb">鞋区</text>
	
		<text transform="matrix(1 0 0 1 283.0002 413.5002)" font-family="'AdobeSongStd-Light-GBpc-EUC-H'" font-size="12" glyph-orientation-vertical="0" writing-mode="tb">名品区</text>
	
		<text transform="matrix(1 0 0 1 389.9998 414.5002)" font-family="'AdobeSongStd-Light-GBpc-EUC-H'" font-size="12" glyph-orientation-vertical="0" writing-mode="tb">名品区</text>
	
		<text transform="matrix(1 0 0 1 556.9998 347.0002)" font-family="'AdobeSongStd-Light-GBpc-EUC-H'" font-size="9" glyph-orientation-vertical="0" writing-mode="tb">化妆品区</text>
	
		<text transform="matrix(1 0 0 1 596.4998 383.0002)" font-family="'AdobeSongStd-Light-GBpc-EUC-H'" font-size="12" glyph-orientation-vertical="0" writing-mode="tb">餐厅区</text>
	<text transform="matrix(1 0 0 1 234.5002 64.5002)" font-family="'AdobeSongStd-Light-GBpc-EUC-H'" font-size="12">鞋区</text>
	<text transform="matrix(1 0 0 1 433.4998 65.0002)" font-family="'AdobeSongStd-Light-GBpc-EUC-H'" font-size="12">鞋区</text>
	<text transform="matrix(1 0 0 1 169.0002 334.5002)" font-family="'AdobeSongStd-Light-GBpc-EUC-H'" font-size="12">名品区</text>
	<text transform="matrix(1 0 0 1 166.5002 380.0002)" font-family="'AdobeSongStd-Light-GBpc-EUC-H'" font-size="12">化妆品区</text>
	<text transform="matrix(1 0 0 1 425.4998 416.0002)" font-family="'AdobeSongStd-Light-GBpc-EUC-H'" font-size="12">化妆品区</text>
	<text transform="matrix(1 0 0 1 289.5002 175.5002)" font-family="'AdobeSongStd-Light-GBpc-EUC-H'" font-size="12">珠宝区</text>
	<text transform="matrix(1 0 0 1 341.4998 170.5002)" font-family="'AdobeSongStd-Light-GBpc-EUC-H'" font-size="9">化妆品区</text>
	<text transform="matrix(1 0 0 1 341.4998 221.0002)" font-family="'AdobeSongStd-Light-GBpc-EUC-H'" font-size="9">化妆品区</text>
	<text transform="matrix(1 0 0 1 289.0002 220.5002)" font-family="'AdobeSongStd-Light-GBpc-EUC-H'" font-size="9">化妆品区</text>
	<text transform="matrix(1 0 0 1 290.5002 298.0002)" font-family="'AdobeSongStd-Light-GBpc-EUC-H'" font-size="9">化妆品区</text>
	<text transform="matrix(1 0 0 1 340.9998 297.5002)" font-family="'AdobeSongStd-Light-GBpc-EUC-H'" font-size="9">化妆品区</text>
	<text transform="matrix(1.0139 0 0 1 239.0007 333.5002)" font-family="'AdobeSongStd-Light-GBpc-EUC-H'" font-size="9">化妆品区</text>
	<text transform="matrix(1 0 0 1 289.5002 334.0002)" font-family="'AdobeSongStd-Light-GBpc-EUC-H'" font-size="9">化妆品区</text>
	<text transform="matrix(1 0 0 1 236.0002 380.0002)" font-family="'AdobeSongStd-Light-GBpc-EUC-H'" font-size="9">化妆品区</text>
	<text transform="matrix(1 0 0 1 288.0002 376.5002)" font-family="'AdobeSongStd-Light-GBpc-EUC-H'" font-size="9">化妆品区</text>
	<text transform="matrix(1 0 0 1 340.9998 377.5002)" font-family="'AdobeSongStd-Light-GBpc-EUC-H'" font-size="9">化妆品区</text>
	<rect x="450" y="357.5" fill="#A9DFEC" width="40" height="32"/>
	<text transform="matrix(1 0 0 1 341.9998 334.0002)" font-family="'AdobeSongStd-Light-GBpc-EUC-H'" font-size="9">化妆品区</text>
	<text transform="matrix(1 0 0 1 396.9998 333.5002)" font-family="'AdobeSongStd-Light-GBpc-EUC-H'" font-size="9">化妆品区</text>
	<text transform="matrix(1 0 0 1 394.9998 377.5002)" font-family="'AdobeSongStd-Light-GBpc-EUC-H'" font-size="9">化妆品区</text>
	<text transform="matrix(1 0 0 1 453.4998 379.0002)" font-family="'AdobeSongStd-Light-GBpc-EUC-H'" font-size="9">化妆品区</text>
	<text transform="matrix(1 0 0 1 453.9998 336.0002)" font-family="'AdobeSongStd-Light-GBpc-EUC-H'" font-size="9">化妆品区</text>
	<text transform="matrix(1 0 0 1 506.4998 378.0002)" font-family="'AdobeSongStd-Light-GBpc-EUC-H'" font-size="9">化妆品区</text>
	<text transform="matrix(1 0 0 1 506.4998 334.0002)" font-family="'AdobeSongStd-Light-GBpc-EUC-H'" font-size="9">化妆品区</text>
	<rect x="560" y="331" fill="#A9DFEC" width="26.5" height="11.5"/>
	<text transform="matrix(1 0 0 1 559.9998 340.0002)" font-family="'AdobeSongStd-Light-GBpc-EUC-H'" font-size="6">化妆品区</text>
	<circle fill="#FF0000" stroke="#000000" stroke-miterlimit="10" cx="48.5" cy="65" r="1"/>
	<circle fill="#FF0000" stroke="#000000" stroke-miterlimit="10" cx="53.833" cy="190.5" r="1"/>
	<circle fill="#FF0000" stroke="#000000" stroke-miterlimit="10" cx="53.833" cy="308" r="1"/>
	<circle fill="#FF0000" stroke="#000000" stroke-miterlimit="10" cx="9.167" cy="418" r="1"/>
	<circle fill="#FF0000" stroke="#000000" stroke-miterlimit="10" cx="199.833" cy="152.5" r="1"/>
	<circle fill="#FF0000" stroke="#000000" stroke-miterlimit="10" cx="227.167" cy="152.5" r="1"/>
	<circle fill="#FF0000" stroke="#000000" stroke-miterlimit="10" cx="255" cy="3.167" r="1"/>
	<circle fill="#FF0000" stroke="#000000" stroke-miterlimit="10" cx="459.835" cy="3.167" r="1"/>
	<circle fill="#FF0000" stroke="#000000" stroke-miterlimit="10" cx="605.168" cy="59.167" r="1"/>
	<circle fill="#FF0000" stroke="#000000" stroke-miterlimit="10" cx="605.168" cy="206.5" r="1"/>
	<circle fill="#FF0000" stroke="#000000" stroke-miterlimit="10" cx="605.168" cy="270.5" r="1"/>
	<circle fill="#FF0000" stroke="#000000" stroke-miterlimit="10" cx="222.5" cy="455.832" r="1"/>
	<circle fill="#FF0000" stroke="#000000" stroke-miterlimit="10" cx="443.835" cy="455.832" r="1"/>
	<circle fill="#FF0000" stroke="#000000" stroke-miterlimit="10" cx="420.5" cy="152.5" r="1"/>
	<circle fill="#FF0000" stroke="#000000" stroke-miterlimit="10" cx="447.5" cy="152.5" r="1"/>
	<circle fill="#FF0000" stroke="#000000" stroke-miterlimit="10" cx="215.833" cy="190.5" r="1"/>
	<circle fill="#FF0000" stroke="#000000" stroke-miterlimit="10" cx="433.5" cy="187.834" r="1"/>
	<circle fill="#FF0000" stroke="#000000" stroke-miterlimit="10" cx="433.5" cy="293.75" r="1"/>
	<circle fill="#FF0000" stroke="#000000" stroke-miterlimit="10" cx="213.5" cy="293.75" r="1"/>
	<circle fill="#FF0000" stroke="#000000" stroke-miterlimit="10" cx="151.167" cy="455.832" r="1"/>
	<circle fill="#FF0000" stroke="#000000" stroke-miterlimit="10" cx="326.5" cy="455.832" r="1"/>
	<circle fill="#FF0000" stroke="#000000" stroke-miterlimit="10" cx="495.25" cy="455.832" r="1"/>
	<polyline fill="#FFFFFF" stroke="#000000" stroke-miterlimit="10" points="152.167,80.5 152.167,114 152.167,145.834 152.167,228.75 152.167,265 152.167,311.167 152.167,331 152.167,354.25 152.167,373.5 152.167,395.167 	"/>
	<polyline fill="#FFFFFF" stroke="#000000" stroke-miterlimit="10" points="219,80.5 219,146.5 219,193.5 219,256.5 219,311.833 226.167,328.5 226.167,354.25 226.167,395.167 	"/>
	<polyline fill="#FFFFFF" stroke="#000000" stroke-miterlimit="10" points="280,143.25 280,196.5 280,253.833 280,311.833 280,351.166 280,395.167 	"/>
	<polyline fill="#FFFFFF" stroke="#000000" stroke-miterlimit="10" points="334.5,80.5 334.5,114 334.5,143.25 334.5,171.5 334.5,193.5 334.5,221 334.5,256.5 334.5,311.833 334.5,349.833 334.5,395.167 	"/>
	<polyline fill="#FFFFFF" stroke="#000000" stroke-miterlimit="10" points="384.5,143.25 384.5,171.5 384.5,193.5 384.5,225.25 384.5,253.833 384.5,284.25 384.5,312.5 384.5,331.25 384.5,350.5 384.5,373.5 384.5,395.167 	"/>
	<polyline fill="#FFFFFF" stroke="#000000" stroke-miterlimit="10" points="442.835,80.5 442.835,111.75 442.835,143.25 442.835,197.167 442.835,265 442.835,312.5 442.835,334 442.835,354.25 442.835,376.5 442.835,395.167 	"/>
	<polyline fill="#FFFFFF" stroke="#000000" stroke-miterlimit="10" points="496.25,143.25 496.25,175.5 496.25,200.5 496.25,228.75 496.25,251.166 496.25,284.25 496.25,312.5 496.25,351.166 496.25,373.5 496.25,395.167 	"/>
	<polyline fill="#FFFFFF" stroke="#000000" stroke-miterlimit="10" points="549.166,80.5 549.166,111.75 549.166,143.25 549.166,171.5 549.166,200.5 549.166,224.5 549.166,248.5 549.166,278.5 549.166,309 549.166,331.25 543.625,351.833 543.625,378 543.625,389.5 531.166,395.167 	"/>
</g>
</svg>
